<?xml version="1.0" encoding="UTF-8" standalone="no"?>
<!DOCTYPE svg PUBLIC "-//W3C//DTD SVG 1.1//EN"
 "http://www.w3.org/Graphics/SVG/1.1/DTD/svg11.dtd">
<!-- Generated by graphviz version 14.1.3 (20260303.0454)
 -->
<!-- Title: PlanImplement Pages: 1 -->
<svg width="151pt" height="443pt"
 viewBox="0.00 0.00 151.00 443.00" xmlns="http://www.w3.org/2000/svg" xmlns:xlink="http://www.w3.org/1999/xlink">
<g id="graph0" class="graph" transform="scale(1 1) rotate(0) translate(4 438.5)">
<title>PlanImplement</title>
<polygon fill="white" stroke="none" points="-4,4 -4,-438.5 147.41,-438.5 147.41,4 -4,4"/>
<!-- start -->
<g id="node1" class="node">
<title>start</title>
<polygon fill="none" stroke="black" points="71.71,-434.5 31.66,-416.5 71.71,-398.5 111.76,-416.5 71.71,-434.5"/>
<polyline fill="none" stroke="black" points="42.6,-421.42 42.6,-411.58"/>
<polyline fill="none" stroke="black" points="60.76,-403.42 82.65,-403.42"/>
<polyline fill="none" stroke="black" points="100.81,-411.58 100.81,-421.42"/>
<polyline fill="none" stroke="black" points="82.65,-429.58 60.76,-429.58"/>
<text xml:space="preserve" text-anchor="middle" x="71.71" y="-411.45" font-family="Times,serif" font-size="14.00">Start</text>
</g>
<!-- plan -->
<g id="node3" class="node">
<title>plan</title>
<ellipse fill="none" stroke="black" cx="71.71" cy="-343.5" rx="27.3" ry="18"/>
<text xml:space="preserve" text-anchor="middle" x="71.71" y="-338.45" font-family="Times,serif" font-size="14.00">Plan</text>
</g>
<!-- start&#45;&gt;plan -->
<g id="edge1" class="edge">
<title>start&#45;&gt;plan</title>
<path fill="none" stroke="black" d="M71.71,-398.31C71.71,-390.73 71.71,-381.6 71.71,-373.04"/>
<polygon fill="black" stroke="black" points="75.21,-373.04 71.71,-363.04 68.21,-373.04 75.21,-373.04"/>
</g>
<!-- exit -->
<g id="node2" class="node">
<title>exit</title>
<polygon fill="none" stroke="black" points="90.96,-38.5 52.46,-38.5 52.46,0 90.96,0 90.96,-38.5"/>
<polyline fill="none" stroke="black" points="64.46,-38.5 52.46,-26.5"/>
<polyline fill="none" stroke="black" points="52.46,-12 64.46,0"/>
<polyline fill="none" stroke="black" points="78.96,0 90.96,-12"/>
<polyline fill="none" stroke="black" points="90.96,-26.5 78.96,-38.5"/>
<text xml:space="preserve" text-anchor="middle" x="71.71" y="-14.2" font-family="Times,serif" font-size="14.00">Exit</text>
</g>
<!-- approve -->
<g id="node4" class="node">
<title>approve</title>
<polygon fill="none" stroke="black" points="143.41,-255 107.56,-273 35.85,-273 0,-255 35.85,-237 107.56,-237 143.41,-255"/>
<text xml:space="preserve" text-anchor="middle" x="71.71" y="-249.95" font-family="Times,serif" font-size="14.00">Approve Plan</text>
</g>
<!-- plan&#45;&gt;approve -->
<g id="edge2" class="edge">
<title>plan&#45;&gt;approve</title>
<path fill="none" stroke="black" d="M70.51,-325.06C70.18,-319.46 69.87,-313.22 69.71,-307.5 69.5,-300.17 69.5,-298.33 69.71,-291 69.76,-288.94 69.84,-286.82 69.93,-284.69"/>
<polygon fill="black" stroke="black" points="73.42,-285.12 70.44,-274.95 66.43,-284.76 73.42,-285.12"/>
</g>
<!-- approve&#45;&gt;plan -->
<g id="edge4" class="edge">
<title>approve&#45;&gt;plan</title>
<path fill="none" stroke="black" d="M71.71,-273.35C71.71,-285.06 71.71,-300.79 71.71,-314.28"/>
<polygon fill="black" stroke="black" points="68.21,-313.9 71.71,-323.9 75.21,-313.9 68.21,-313.9"/>
<text xml:space="preserve" text-anchor="middle" x="100.96" y="-294.2" font-family="Times,serif" font-size="14.00">[R] Revise</text>
</g>
<!-- implement -->
<g id="node5" class="node coding">
<title>implement</title>
<ellipse fill="none" stroke="black" cx="71.71" cy="-166.5" rx="51.86" ry="18"/>
<text xml:space="preserve" text-anchor="middle" x="71.71" y="-161.45" font-family="Times,serif" font-size="14.00">Implement</text>
</g>
<!-- approve&#45;&gt;implement -->
<g id="edge3" class="edge">
<title>approve&#45;&gt;implement</title>
<path fill="none" stroke="black" d="M71.71,-236.91C71.71,-225.26 71.71,-209.55 71.71,-196.02"/>
<polygon fill="black" stroke="black" points="75.21,-196.36 71.71,-186.36 68.21,-196.36 75.21,-196.36"/>
<text xml:space="preserve" text-anchor="middle" x="106.21" y="-205.7" font-family="Times,serif" font-size="14.00">[A] Approve</text>
</g>
<!-- simplify -->
<g id="node6" class="node coding">
<title>simplify</title>
<ellipse fill="none" stroke="black" cx="71.71" cy="-93.5" rx="43.67" ry="18"/>
<text xml:space="preserve" text-anchor="middle" x="71.71" y="-88.45" font-family="Times,serif" font-size="14.00">Simplify</text>
</g>
<!-- implement&#45;&gt;simplify -->
<g id="edge5" class="edge">
<title>implement&#45;&gt;simplify</title>
<path fill="none" stroke="black" d="M71.71,-148.31C71.71,-140.73 71.71,-131.6 71.71,-123.04"/>
<polygon fill="black" stroke="black" points="75.21,-123.04 71.71,-113.04 68.21,-123.04 75.21,-123.04"/>
</g>
<!-- simplify&#45;&gt;exit -->
<g id="edge6" class="edge">
<title>simplify&#45;&gt;exit</title>
<path fill="none" stroke="black" d="M71.71,-75.01C71.71,-67.57 71.71,-58.69 71.71,-50.25"/>
<polygon fill="black" stroke="black" points="75.21,-50.36 71.71,-40.36 68.21,-50.36 75.21,-50.36"/>
</g>
</g>
</svg>
