<?xml version="1.0" encoding="UTF-8" standalone="no"?>
<!DOCTYPE svg PUBLIC "-//W3C//DTD SVG 1.1//EN"
 "http://www.w3.org/Graphics/SVG/1.1/DTD/svg11.dtd">
<!-- Generated by graphviz version 14.1.2 (20260124.0452)
 -->
<!-- Title: FillLegacyForm Pages: 1 -->
<svg width="673pt" height="44pt"
 viewBox="0.00 0.00 673.00 44.00" xmlns="http://www.w3.org/2000/svg" xmlns:xlink="http://www.w3.org/1999/xlink">
<style>
  @media (prefers-color-scheme: dark) {
    [fill="#1a1a1a"] { fill: #e5e5e5; }
    [fill="#666666"] { fill: #aaaaaa; }
    [stroke="#666666"] { stroke: #aaaaaa; }
    [stroke="#999999"] { stroke: #777777; }
  }
</style>
<g id="graph0" class="graph" transform="scale(1 1) rotate(0) translate(4 40.25)">
<title>FillLegacyForm</title>
<!-- start -->
<g id="node1" class="node">
<title>start</title>
<polygon fill="none" stroke="#357f9e" points="35.26,-36.12 0,-18.13 35.26,-0.13 70.52,-18.12 35.26,-36.12"/>
<polyline fill="none" stroke="#357f9e" points="10.69,-23.58 10.69,-12.67"/>
<polyline fill="none" stroke="#357f9e" points="24.57,-5.58 45.95,-5.58"/>
<polyline fill="none" stroke="#357f9e" points="59.83,-12.67 59.83,-23.58"/>
<polyline fill="none" stroke="#357f9e" points="45.95,-30.67 24.57,-30.67"/>
<text xml:space="preserve" text-anchor="middle" x="35.26" y="-13.1" font-family="Helvetica,sans-Serif" font-size="12.00" fill="#1a1a1a">Start</text>
</g>
<!-- prepare -->
<g id="node3" class="node">
<title>prepare</title>
<path fill="none" stroke="#357f9e" d="M182.77,-36.12C182.77,-36.12 119.52,-36.12 119.52,-36.12 113.52,-36.12 107.52,-30.12 107.52,-24.12 107.52,-24.12 107.52,-12.12 107.52,-12.12 107.52,-6.12 113.52,-0.12 119.52,-0.12 119.52,-0.12 182.77,-0.12 182.77,-0.12 188.77,-0.12 194.77,-6.12 194.77,-12.12 194.77,-12.12 194.77,-24.13 194.77,-24.13 194.77,-30.12 188.77,-36.12 182.77,-36.12"/>
<text xml:space="preserve" text-anchor="middle" x="151.15" y="-13.1" font-family="Helvetica,sans-Serif" font-size="12.00" fill="#1a1a1a">Prepare Data</text>
</g>
<!-- start&#45;&gt;prepare -->
<g id="edge1" class="edge">
<title>start&#45;&gt;prepare</title>
<path fill="none" stroke="#666666" d="M71.36,-18.12C79.18,-18.12 87.64,-18.12 96.03,-18.12"/>
<polygon fill="#666666" stroke="#666666" points="95.83,-21.63 105.83,-18.13 95.83,-14.63 95.83,-21.63"/>
</g>
<!-- exit -->
<g id="node2" class="node">
<title>exit</title>
<polygon fill="none" stroke="#357f9e" points="664.87,-36.25 628.62,-36.25 628.62,0 664.87,0 664.87,-36.25"/>
<polyline fill="none" stroke="#357f9e" points="640.62,-36.25 628.62,-24.25"/>
<polyline fill="none" stroke="#357f9e" points="628.62,-12 640.62,0"/>
<polyline fill="none" stroke="#357f9e" points="652.87,0 664.87,-12"/>
<polyline fill="none" stroke="#357f9e" points="664.87,-24.25 652.87,-36.25"/>
<text xml:space="preserve" text-anchor="middle" x="646.74" y="-13.1" font-family="Helvetica,sans-Serif" font-size="12.00" fill="#1a1a1a">Exit</text>
</g>
<!-- fill -->
<g id="node4" class="node">
<title>fill</title>
<path fill="none" stroke="#357f9e" d="M317.52,-36.12C317.52,-36.12 243.77,-36.12 243.77,-36.12 237.77,-36.12 231.77,-30.12 231.77,-24.12 231.77,-24.12 231.77,-12.12 231.77,-12.12 231.77,-6.12 237.77,-0.12 243.77,-0.12 243.77,-0.12 317.52,-0.12 317.52,-0.12 323.52,-0.12 329.52,-6.12 329.52,-12.12 329.52,-12.12 329.52,-24.13 329.52,-24.13 329.52,-30.12 323.52,-36.12 317.52,-36.12"/>
<text xml:space="preserve" text-anchor="middle" x="280.65" y="-13.1" font-family="Helvetica,sans-Serif" font-size="12.00" fill="#1a1a1a">Fill Portal Form</text>
</g>
<!-- prepare&#45;&gt;fill -->
<g id="edge2" class="edge">
<title>prepare&#45;&gt;fill</title>
<path fill="none" stroke="#666666" d="M194.96,-18.12C203.02,-18.12 211.57,-18.12 220.04,-18.12"/>
<polygon fill="#666666" stroke="#666666" points="219.94,-21.63 229.94,-18.13 219.94,-14.63 219.94,-21.63"/>
</g>
<!-- review -->
<g id="node5" class="node">
<title>review</title>
<path fill="none" stroke="#357f9e" d="M550.79,-22.73C550.79,-22.73 529.68,-31.52 529.68,-31.52 524.14,-33.82 512.6,-36.12 506.6,-36.12 506.6,-36.12 444.05,-36.12 444.05,-36.12 438.05,-36.12 426.51,-33.82 420.97,-31.52 420.97,-31.52 399.85,-22.73 399.85,-22.73 394.31,-20.43 394.31,-15.82 399.85,-13.52 399.85,-13.52 420.97,-4.73 420.97,-4.73 426.51,-2.43 438.05,-0.13 444.05,-0.13 444.05,-0.13 506.6,-0.13 506.6,-0.13 512.6,-0.13 524.14,-2.43 529.68,-4.73 529.68,-4.73 550.79,-13.52 550.79,-13.52 556.33,-15.82 556.33,-20.43 550.79,-22.73"/>
<text xml:space="preserve" text-anchor="middle" x="475.32" y="-13.1" font-family="Helvetica,sans-Serif" font-size="12.00" fill="#1a1a1a">Review Submission</text>
</g>
<!-- fill&#45;&gt;review -->
<g id="edge3" class="edge">
<title>fill&#45;&gt;review</title>
<path fill="none" stroke="#666666" d="M329.77,-18.12C344.08,-18.12 360.3,-18.12 376.57,-18.12"/>
<polygon fill="#666666" stroke="#666666" points="376.31,-21.63 386.31,-18.13 376.31,-14.63 376.31,-21.63"/>
</g>
<!-- review&#45;&gt;exit -->
<g id="edge4" class="edge">
<title>review&#45;&gt;exit</title>
<path fill="none" stroke="#666666" d="M563.02,-18.12C582.55,-18.12 601.94,-18.12 617.03,-18.12"/>
<polygon fill="#666666" stroke="#666666" points="616.62,-21.63 626.62,-18.13 616.62,-14.63 616.62,-21.63"/>
<text xml:space="preserve" text-anchor="middle" x="595.24" y="-19.88" font-family="Helvetica,sans-Serif" font-size="10.00" fill="#666666">Submit</text>
</g>
<!-- review&#45;&gt;fill -->
<g id="edge5" class="edge">
<title>review&#45;&gt;fill</title>
<path fill="none" stroke="#666666" d="M416.26,-6.25C394.68,-3.25 369.99,-1.47 347.52,-3.88 345.34,-4.11 343.13,-4.38 340.89,-4.69"/>
<polygon fill="#666666" stroke="#666666" points="340.48,-1.22 331.16,-6.26 341.59,-8.13 340.48,-1.22"/>
<text xml:space="preserve" text-anchor="middle" x="359.15" y="-5.62" font-family="Helvetica,sans-Serif" font-size="10.00" fill="#666666">Redo</text>
</g>
</g>
</svg>
