<?xml version="1.0" encoding="UTF-8" standalone="no"?>
<!DOCTYPE svg PUBLIC "-//W3C//DTD SVG 1.1//EN"
 "http://www.w3.org/Graphics/SVG/1.1/DTD/svg11.dtd">
<!-- Generated by graphviz version 14.1.2 (20260124.0452)
 -->
<!-- Title: InvestigateSlowQuery Pages: 1 -->
<svg width="683pt" height="44pt"
 viewBox="0.00 0.00 683.00 44.00" xmlns="http://www.w3.org/2000/svg" xmlns:xlink="http://www.w3.org/1999/xlink">
<style>
  @media (prefers-color-scheme: dark) {
    [fill="#1a1a1a"] { fill: #e5e5e5; }
    [fill="#666666"] { fill: #aaaaaa; }
    [stroke="#666666"] { stroke: #aaaaaa; }
    [stroke="#999999"] { stroke: #777777; }
  }
</style>
<g id="graph0" class="graph" transform="scale(1 1) rotate(0) translate(4 40.25)">
<title>InvestigateSlowQuery</title>
<!-- start -->
<g id="node1" class="node">
<title>start</title>
<polygon fill="none" stroke="#357f9e" points="35.26,-36.12 0,-18.13 35.26,-0.13 70.52,-18.12 35.26,-36.12"/>
<polyline fill="none" stroke="#357f9e" points="10.69,-23.58 10.69,-12.67"/>
<polyline fill="none" stroke="#357f9e" points="24.57,-5.58 45.95,-5.58"/>
<polyline fill="none" stroke="#357f9e" points="59.83,-12.67 59.83,-23.58"/>
<polyline fill="none" stroke="#357f9e" points="45.95,-30.67 24.57,-30.67"/>
<text xml:space="preserve" text-anchor="middle" x="35.26" y="-13.1" font-family="Helvetica,sans-Serif" font-size="12.00" fill="#1a1a1a">Start</text>
</g>
<!-- analyze -->
<g id="node3" class="node">
<title>analyze</title>
<path fill="none" stroke="#357f9e" d="M230.02,-36.12C230.02,-36.12 119.52,-36.12 119.52,-36.12 113.52,-36.12 107.52,-30.12 107.52,-24.12 107.52,-24.12 107.52,-12.12 107.52,-12.12 107.52,-6.12 113.52,-0.12 119.52,-0.12 119.52,-0.12 230.02,-0.12 230.02,-0.12 236.02,-0.12 242.02,-6.12 242.02,-12.12 242.02,-12.12 242.02,-24.13 242.02,-24.13 242.02,-30.12 236.02,-36.12 230.02,-36.12"/>
<text xml:space="preserve" text-anchor="middle" x="174.77" y="-13.1" font-family="Helvetica,sans-Serif" font-size="12.00" fill="#1a1a1a">Analyze Slow Queries</text>
</g>
<!-- start&#45;&gt;analyze -->
<g id="edge1" class="edge">
<title>start&#45;&gt;analyze</title>
<path fill="none" stroke="#666666" d="M71.32,-18.12C78.95,-18.12 87.32,-18.12 95.89,-18.12"/>
<polygon fill="#666666" stroke="#666666" points="95.7,-21.63 105.7,-18.13 95.7,-14.63 95.7,-21.63"/>
</g>
<!-- exit -->
<g id="node2" class="node">
<title>exit</title>
<polygon fill="none" stroke="#357f9e" points="674.73,-36.25 638.48,-36.25 638.48,0 674.73,0 674.73,-36.25"/>
<polyline fill="none" stroke="#357f9e" points="650.48,-36.25 638.48,-24.25"/>
<polyline fill="none" stroke="#357f9e" points="638.48,-12 650.48,0"/>
<polyline fill="none" stroke="#357f9e" points="662.73,0 674.73,-12"/>
<polyline fill="none" stroke="#357f9e" points="674.73,-24.25 662.73,-36.25"/>
<text xml:space="preserve" text-anchor="middle" x="656.61" y="-13.1" font-family="Helvetica,sans-Serif" font-size="12.00" fill="#1a1a1a">Exit</text>
</g>
<!-- fix -->
<g id="node4" class="node">
<title>fix</title>
<path fill="none" stroke="#357f9e" d="M334.77,-36.12C334.77,-36.12 291.02,-36.12 291.02,-36.12 285.02,-36.12 279.02,-30.12 279.02,-24.12 279.02,-24.12 279.02,-12.12 279.02,-12.12 279.02,-6.12 285.02,-0.12 291.02,-0.12 291.02,-0.12 334.77,-0.12 334.77,-0.12 340.77,-0.12 346.77,-6.12 346.77,-12.12 346.77,-12.12 346.77,-24.13 346.77,-24.13 346.77,-30.12 340.77,-36.12 334.77,-36.12"/>
<text xml:space="preserve" text-anchor="middle" x="312.9" y="-13.1" font-family="Helvetica,sans-Serif" font-size="12.00" fill="#1a1a1a">Fix Query</text>
</g>
<!-- analyze&#45;&gt;fix -->
<g id="edge2" class="edge">
<title>analyze&#45;&gt;fix</title>
<path fill="none" stroke="#666666" d="M242.24,-18.12C250.76,-18.12 259.32,-18.12 267.38,-18.12"/>
<polygon fill="#666666" stroke="#666666" points="267.25,-21.63 277.25,-18.13 267.25,-14.63 267.25,-21.63"/>
</g>
<!-- review -->
<g id="node5" class="node">
<title>review</title>
<path fill="none" stroke="#357f9e" d="M555.63,-23.24C555.63,-23.24 539.1,-31.01 539.1,-31.01 533.67,-33.57 522.24,-36.12 516.24,-36.12 516.24,-36.12 463.76,-36.12 463.76,-36.12 457.76,-36.12 446.33,-33.57 440.91,-31.01 440.91,-31.01 424.38,-23.24 424.38,-23.24 418.95,-20.68 418.95,-15.57 424.38,-13.01 424.38,-13.01 440.91,-5.24 440.91,-5.24 446.33,-2.68 457.76,-0.13 463.76,-0.13 463.76,-0.13 516.24,-0.13 516.24,-0.13 522.24,-0.13 533.67,-2.68 539.1,-5.24 539.1,-5.24 555.63,-13.01 555.63,-13.01 561.06,-15.57 561.06,-20.68 555.63,-23.24"/>
<text xml:space="preserve" text-anchor="middle" x="490" y="-13.1" font-family="Helvetica,sans-Serif" font-size="12.00" fill="#1a1a1a">Review Changes</text>
</g>
<!-- fix&#45;&gt;review -->
<g id="edge3" class="edge">
<title>fix&#45;&gt;review</title>
<path fill="none" stroke="#666666" d="M347.25,-18.12C362.76,-18.12 382.01,-18.12 401.28,-18.12"/>
<polygon fill="#666666" stroke="#666666" points="401.08,-21.63 411.08,-18.13 401.08,-14.63 401.08,-21.63"/>
</g>
<!-- review&#45;&gt;exit -->
<g id="edge4" class="edge">
<title>review&#45;&gt;exit</title>
<path fill="none" stroke="#666666" d="M567.52,-18.12C588.74,-18.12 610.47,-18.12 627.03,-18.12"/>
<polygon fill="#666666" stroke="#666666" points="626.59,-21.63 636.59,-18.13 626.59,-14.63 626.59,-21.63"/>
<text xml:space="preserve" text-anchor="middle" x="602.48" y="-19.88" font-family="Helvetica,sans-Serif" font-size="10.00" fill="#666666">Approve</text>
</g>
<!-- review&#45;&gt;fix -->
<g id="edge5" class="edge">
<title>review&#45;&gt;fix</title>
<path fill="none" stroke="#666666" d="M437.56,-6.43C415.17,-2.84 388.65,-0.59 364.77,-3.88 362.59,-4.17 360.37,-4.54 358.14,-4.97"/>
<polygon fill="#666666" stroke="#666666" points="357.48,-1.53 348.49,-7.12 359.01,-8.36 357.48,-1.53"/>
<text xml:space="preserve" text-anchor="middle" x="380.15" y="-5.62" font-family="Helvetica,sans-Serif" font-size="10.00" fill="#666666">Revise</text>
</g>
</g>
</svg>
